<?xml version="1.0" encoding="UTF-8"?>
<!DOCTYPE svg PUBLIC "-//W3C//DTD SVG 1.1//EN" "http://www.w3.org/Graphics/SVG/1.1/DTD/svg11.dtd">
<svg xmlns="http://www.w3.org/2000/svg" version="1.1" width="200px" height="200px"
    style="shape-rendering:geometricPrecision; text-rendering:geometricPrecision; image-rendering:optimizeQuality; fill-rule:evenodd; clip-rule:evenodd"
    xmlns:xlink="http://www.w3.org/1999/xlink">
    <g>
        <path style="opacity:1" fill="#009943"
            d="M 97.5,24.5 C 102.441,28.2651 107.274,32.2651 112,36.5C 133.332,73.5193 154.332,110.519 175,147.5C 152.364,126.531 130.03,105.198 108,83.5C 99.1889,86.7417 90.3555,89.075 81.5,90.5C 87.4646,68.6421 92.7979,46.6421 97.5,24.5 Z" />
    </g>
    <g>
        <path style="opacity:1" fill="#bde4ce" d="M 83.5,41.5 C 84.8333,42.1667 84.8333,42.1667 83.5,41.5 Z" />
    </g>
    <g>
        <path style="opacity:1" fill="#009943"
            d="M 83.5,42.5 C 76.8192,71.8908 69.8192,101.224 62.5,130.5C 62.6667,131.167 62.8333,131.833 63,132.5C 69.0412,138.709 75.2079,144.709 81.5,150.5C 59.6804,157.274 37.8471,163.94 16,170.5C 16.3473,162.441 18.3473,154.774 22,147.5C 42.3634,112.331 62.8634,77.3308 83.5,42.5 Z" />
    </g>
    <g>
        <path style="opacity:1" fill="#f08d00"
            d="M 103.5,94.5 C 104.552,94.3505 105.552,94.5172 106.5,95C 112.833,101.333 119.167,107.667 125.5,114C 122.957,122.372 120.791,130.872 119,139.5C 110.619,142.46 102.119,145.127 93.5,147.5C 86.0123,141.512 79.0123,135.012 72.5,128C 74.7447,119.521 76.9113,111.021 79,102.5C 87.2809,99.8946 95.4476,97.228 103.5,94.5 Z" />
    </g>
    <g>
        <path style="opacity:1" fill="#009944"
            d="M 132.5,121.5 C 149.911,136.739 166.911,152.572 183.5,169C 177.879,170.822 172.212,172.489 166.5,174C 123.5,174.667 80.5,174.667 37.5,174C 66.7309,165.025 96.0642,156.358 125.5,148C 128.676,139.469 131.009,130.636 132.5,121.5 Z" />
    </g>
</svg>